<svg xmlns="http://www.w3.org/2000/svg" width="1418" height="976" viewBox="0 0 1418 976" fill="none"><path d="M112.49 852.02C103.62 854.29 86.2599 857.24 74.2999 857.24C33.7899 857.24 24.1499 831.38 24.1499 777.38C24.1499 718.84 35.3399 697.51 74.2999 697.51C87.9899 697.51 104.59 701.37 112.69 703.64L111.92 728.6C103.05 727.01 86.8399 725.2 78.1599 725.2C57.9099 725.2 51.5399 733.59 51.5399 777.38C51.5399 818.9 56.1699 829.56 78.9299 829.56C87.7999 829.56 104.2 827.74 111.91 826.38L112.49 852.02Z" fill="#5E8AB4"></path><path d="M239.08 790.54H191.16V854.52H165.02V700.23H191.16V763.3H239.08V700.23H265.22V854.52H239.08V790.54Z" fill="#5E8AB4"></path><path d="M343.48 700.24H391.61L419.72 854.53H394.37L389.41 826.62H345.68L340.72 854.53H315.37L343.48 700.24ZM350.46 799.39H384.63L371.95 726.1H363.13L350.45 799.39H350.46Z" fill="#5E8AB4"></path><path d="M470.96 700.24H515.18L537.76 812.78L560.35 700.24H604.57V854.53H578.6V735.18H575.78L550.75 847.72H524.78L499.75 735.18H496.93V854.53H470.96V700.24Z" fill="#5E8AB4"></path><path d="M690.35 809.59V854.52H664.63V700.23H711.22C741.04 700.23 756.32 717.93 756.32 753.77C756.32 789.61 741.04 809.59 711.22 809.59H690.35ZM711.04 782.82C723.9 782.82 730.24 773.29 730.24 753.78C730.24 734.27 723.9 727.01 711.04 727.01H690.35V782.82H711.04Z" fill="#5E8AB4"></path><path d="M807.11 700.24H832.39V854.53H807.11V700.24Z" fill="#5E8AB4"></path><path d="M894.97 700.24H920.68L905.18 756.28H886.4L894.97 700.24Z" fill="#5E8AB4"></path><path d="M971.19 700.24H1015.39L1037.96 812.78L1060.54 700.24H1104.74V854.53H1078.78V735.18H1075.96L1050.94 847.72H1024.98L999.96 735.18H997.14V854.53H971.18V700.24H971.19Z" fill="#5E8AB4"></path><path d="M1163.84 700.24H1245.86V727.47H1189.57V763.55H1234.68V790.32H1189.57V827.3H1245.86V854.53H1163.84V700.24Z" fill="#5E8AB4"></path><path d="M1325.92 802.79V854.52H1299.93V700.23H1349.65C1378.84 700.23 1394.85 715.89 1394.85 751.05C1394.85 772.38 1387.69 786.67 1376.02 795.52L1394.29 854.51H1365.85L1350.97 802.78H1325.92V802.79ZM1349.65 727.01H1325.92V776.02H1350.02C1363.01 776.02 1368.29 765.13 1368.29 751.51C1368.29 736.76 1362.08 727.01 1349.65 727.01Z" fill="#5E8AB4"></path><path d="M119.54 193.93C271.31 95.84 449.89 44.27 628.68 25.6C808.9 10.68 996.01 14.46 1164.67 88.06C1213.41 109.31 1263.65 140.36 1287.19 191.17C1321.21 264.27 1271.42 326.05 1210.42 362.03C1111.39 420.04 994.23 432.07 882.08 436.03C815.01 438.58 747.54 435.86 680.93 427.83C614.03 421.77 548.02 405.56 484.76 383.89C482.71 383.22 481.59 381.02 482.26 378.98C482.92 376.95 485.11 375.83 487.14 376.47C529.6 389.82 572.17 402.84 615.92 409.64C703.69 422.69 792.81 426.91 881.39 421.22C989.97 414.97 1102.93 398.51 1195.59 338.63C1234.8 312.67 1277.32 269.74 1260.45 219.47C1243.55 170.57 1195.58 142.95 1149.38 123.94C1028.28 74.88 894.4 63.03 764.15 64.29C697.99 64.8 632.09 67.27 566.36 73.84C500.63 79.87 435.58 91.97 371.63 108.38C286.21 130.21 202.82 160.68 123.35 200.71C121.43 201.68 119.08 200.91 118.11 198.98C117.2 197.17 117.85 194.97 119.53 193.91L119.54 193.93Z" fill="#5E8AB4"></path><path d="M671.86 469.13C651.85 527.12 599.92 570.5 540.37 583.86L540.89 558.17L556.86 561.72C689.6 583.58 826.47 603.25 960.1 579.1C991.55 573.14 1022.55 563.96 1052.15 551.83C1066.78 546.15 1076.32 567.35 1061.7 574.31C910.87 640.6 725.37 621.16 567.35 591.66C557.49 589.88 543.82 586.42 534.05 583.58C520.72 579.89 521.61 560.52 535.16 558.05C561.84 553.93 587.76 544.16 609.71 528.13C631.73 512.22 649.27 490.01 661.05 464.67C664.24 457.99 674.31 462.12 671.86 469.13Z" fill="#5E8AB4"></path></svg>