<svg id="Laag_1" data-name="Laag 1" xmlns="http://www.w3.org/2000/svg" viewBox="0 0 692.1 162.35"><defs><style>.cls-1{fill:#fff;}</style></defs><title>Tekengebied 1 kopie</title><path class="cls-1" d="M0,64.34V1.1H21.82A41.26,41.26,0,0,1,32.43,2.28a20.25,20.25,0,0,1,7.22,3.37,13.05,13.05,0,0,1,4.13,5.29,17.88,17.88,0,0,1,1.31,7,13.77,13.77,0,0,1-.66,4.27,12.17,12.17,0,0,1-2,3.8,15.14,15.14,0,0,1-3.5,3.22,21.19,21.19,0,0,1-5,2.45q13,2.92,13,14.08a18,18,0,0,1-1.53,7.44,16.37,16.37,0,0,1-4.46,5.88,21.22,21.22,0,0,1-7.21,3.87,31.67,31.67,0,0,1-9.8,1.4ZM11.76,28.47h9.41c4,0,7-.72,9.09-2.18s3.11-3.78,3.11-7-.93-5.64-2.8-7-4.78-2.1-8.75-2.1H11.76Zm0,8.14V55.15H23.7a16.63,16.63,0,0,0,5.49-.78,9.64,9.64,0,0,0,3.55-2.1,7.82,7.82,0,0,0,1.92-3.06,11.69,11.69,0,0,0,.59-3.72,9.87,9.87,0,0,0-.66-3.7A7,7,0,0,0,32.54,39,9.65,9.65,0,0,0,29,37.22a19.78,19.78,0,0,0-5.29-.61Z"/><path class="cls-1" d="M118.83,1.1v9.36h-28V28h22.09v9.06H90.79V54.93h28v9.41H78.94V1.1Z"/><path class="cls-1" d="M195.54,1.1v9.66h-19V64.34H164.75V10.76H145.63V1.1Z"/><path class="cls-1" d="M282.22,32.72A35,35,0,0,1,279.9,45.6a30.34,30.34,0,0,1-6.52,10.25,29.36,29.36,0,0,1-10.1,6.76,36.44,36.44,0,0,1-26.17,0A29.66,29.66,0,0,1,227,55.85a30.39,30.39,0,0,1-6.54-10.25,35.18,35.18,0,0,1-2.32-12.88,35.14,35.14,0,0,1,2.32-12.88A30.53,30.53,0,0,1,227,9.58a29.66,29.66,0,0,1,10.15-6.76A34.37,34.37,0,0,1,250.21.4a33.63,33.63,0,0,1,13.07,2.45,29.76,29.76,0,0,1,10.1,6.75,30.3,30.3,0,0,1,6.52,10.24A34.94,34.94,0,0,1,282.22,32.72Zm-12.07,0a29.44,29.44,0,0,0-1.38-9.34,19.71,19.71,0,0,0-4-7,17.1,17.1,0,0,0-6.27-4.42,23.52,23.52,0,0,0-16.69,0,17.28,17.28,0,0,0-6.32,4.42,19.78,19.78,0,0,0-4,7,29.14,29.14,0,0,0-1.4,9.34,29,29,0,0,0,1.4,9.33,19.6,19.6,0,0,0,4,7,17.36,17.36,0,0,0,6.32,4.4,23.52,23.52,0,0,0,16.69,0,17.17,17.17,0,0,0,6.27-4.4,19.53,19.53,0,0,0,4-7A29.33,29.33,0,0,0,270.15,32.72Z"/><path class="cls-1" d="M320.92,1.16a3.3,3.3,0,0,1,.95.26,3.7,3.7,0,0,1,.8.57,8.43,8.43,0,0,1,.88,1l33.19,42.29q-.17-1.53-.24-3t-.06-2.73V1.1H366.8V64.34h-6.08a5.38,5.38,0,0,1-2.31-.44,5.22,5.22,0,0,1-1.8-1.57L323.55,20.21c.09.93.15,1.86.2,2.78s.06,1.75.06,2.51V64.34H313.45V1.1h6.16A11.66,11.66,0,0,1,320.92,1.16Z"/><path class="cls-1" d="M408.79,60.53h29.34v3.81h-33.8V2.45h4.46Z"/><path class="cls-1" d="M522.72,33.37a37.45,37.45,0,0,1-2.15,13,28.77,28.77,0,0,1-6,10,26.75,26.75,0,0,1-9.32,6.38,33,33,0,0,1-24,0,26.75,26.75,0,0,1-9.32-6.38,29.29,29.29,0,0,1-6.06-10,37.22,37.22,0,0,1-2.16-13,37.09,37.09,0,0,1,2.16-13,29.29,29.29,0,0,1,6.06-10A26.93,26.93,0,0,1,481.26,4,30.47,30.47,0,0,1,493.2,1.75a30.87,30.87,0,0,1,12,2.26,26.53,26.53,0,0,1,9.32,6.4,29,29,0,0,1,6,10A37.33,37.33,0,0,1,522.72,33.37Zm-4.64,0a35.45,35.45,0,0,0-1.79-11.63,25.16,25.16,0,0,0-5-8.75,21.77,21.77,0,0,0-7.85-5.49A26.54,26.54,0,0,0,493.2,5.6a26.08,26.08,0,0,0-10.08,1.9A22.15,22.15,0,0,0,475.24,13a25,25,0,0,0-5.11,8.75,34.92,34.92,0,0,0-1.82,11.63A34.89,34.89,0,0,0,470.13,45a25,25,0,0,0,5.11,8.72,21.85,21.85,0,0,0,7.88,5.47A26.27,26.27,0,0,0,493.2,61.1a26.72,26.72,0,0,0,10.19-1.88,21.48,21.48,0,0,0,7.85-5.47,25.2,25.2,0,0,0,5-8.72A35.43,35.43,0,0,0,518.08,33.37Z"/><path class="cls-1" d="M614.43,33.37a37.69,37.69,0,0,1-2.14,13,28.94,28.94,0,0,1-6,10,26.75,26.75,0,0,1-9.32,6.38,33,33,0,0,1-24,0,26.75,26.75,0,0,1-9.32-6.38,29.29,29.29,0,0,1-6.06-10,37.22,37.22,0,0,1-2.16-13,37.09,37.09,0,0,1,2.16-13,29.29,29.29,0,0,1,6.06-10A26.93,26.93,0,0,1,573,4a30.47,30.47,0,0,1,11.94-2.28,30.87,30.87,0,0,1,12,2.26,26.53,26.53,0,0,1,9.32,6.4,29.13,29.13,0,0,1,6,10A37.56,37.56,0,0,1,614.43,33.37Zm-4.64,0A35.45,35.45,0,0,0,608,21.74,25.16,25.16,0,0,0,603,13,21.69,21.69,0,0,0,595.1,7.5a26.54,26.54,0,0,0-10.19-1.9,26.08,26.08,0,0,0-10.08,1.9A22.24,22.24,0,0,0,567,13a25,25,0,0,0-5.11,8.75A34.92,34.92,0,0,0,560,33.37,34.89,34.89,0,0,0,561.84,45,25,25,0,0,0,567,53.75a21.93,21.93,0,0,0,7.88,5.47,26.27,26.27,0,0,0,10.08,1.88,26.72,26.72,0,0,0,10.19-1.88A21.4,21.4,0,0,0,603,53.75,25.2,25.2,0,0,0,608,45,35.43,35.43,0,0,0,609.79,33.37Z"/><path class="cls-1" d="M663.54,32.59,642.2,2.45h4.42a1.26,1.26,0,0,1,.89.27,2.51,2.51,0,0,1,.5.61l18.81,27.11c.09-.23.18-.46.28-.67a6.73,6.73,0,0,1,.38-.68L685.63,3.37a4.27,4.27,0,0,1,.57-.63,1,1,0,0,1,.74-.29h4.28L669.84,32.37l22.26,32h-4.42a1.27,1.27,0,0,1-1-.37,5,5,0,0,1-.57-.73l-19.5-28.51A4,4,0,0,1,666,36L646.88,63.24a6.16,6.16,0,0,1-.7.75,1.35,1.35,0,0,1-.92.35h-4.07Z"/><path class="cls-1" d="M254.54,140.78a6.41,6.41,0,0,1-6.35-4.29c-.54,1.27-1.21,2.72-1.75,4-.24.6-.61.66-1,.18-.91-1.21-1.51-3-.3-6.65,1.63-5,13.48-27.38,17.65-33.18.54-.79,1-.79,1.51.06.9,1.69.9,4.41-1.57,8.94-.91,1.7-3.51,5.87-5.38,9.19a8.51,8.51,0,0,1,5.2-2.54c5.13,0,5.38,7.13,2.05,14.51C261.79,137.33,258,140.78,254.54,140.78Zm2.72-19.4c-2.72,2.84-5.62,7.86-7.86,12.51.12,1.75.91,3.69,2.54,4.05,2.11.48,4.89-1.33,8.4-8.34,3.44-6.83,2.72-10.52,1.33-10.64S259.07,119.5,257.26,121.38Z"/><path class="cls-1" d="M278.77,142.35c-3.38,8.1-7.68,17.83-12.69,19.76-1.15.43-2.3.43-3.45-1.26s-2.42-3.93-1.21-7.5c1.82-5.44,7-9.07,12.94-11.42.6-1.39,1.21-2.9,1.87-4.35-1.87,1.93-4.17,3.5-6.59,3.32-4.35-.36-4.47-4.77-3.08-8.76a64.23,64.23,0,0,1,8.22-15.29.83.83,0,0,1,1.51,0c1.45,1.93,1.09,4.47-1.15,8a56,56,0,0,0-4.65,8.83c-1.21,3-1.09,5.07.3,5.2,2.36.18,5.38-3.69,8.46-8.95,2.6-4.47,5.2-9.91,7.32-13,.54-.79,1-.91,1.51-.43.84,1.09,1.33,3.69-.24,6.77-1.82,3.51-5.5,10.76-8,16.62a32.19,32.19,0,0,0,10.7-9.3c.3-.43.84-.49,1,.12a5.45,5.45,0,0,1-1.08,3.5C288,138,283.79,140.3,278.77,142.35Zm-14.93,16.44c.79,1.15,5.74-5.44,9.49-14.32C265.47,149,262.75,157.28,263.84,158.79Z"/><path class="cls-1" d="M319.08,140.48c-3,.84-6.77,1.33-10.09-1.21-2.18-1.63-4-4.35-4.05-9.31-.13-13,12.08-24.48,18.91-26.71,3.39-1.09,6.11-1.15,8.16.36a8.14,8.14,0,0,1,3.15,4.29,7,7,0,0,1-.43,5.26c-.72,1.63-1.69,4-2.35,5.8-.19.48-.61.91-1.27.3-1.39-1-2.36-2.72-1.57-5.74s3-6.41,1.69-7.74c-1.94-2-11.79,3.21-17.53,12-5.62,8.58-5.44,17.77-3,20,3.32,3.08,10.39-1.45,14.08-8.77-1.93.37-3.87.73-5.32.85-3,.3-4.89-1-5.8-2.9-.3-.61-.12-1,.6-1,4.72-.06,9.31-1.57,13-1.63,3-.06,4.71,1.27,5.5,3.08.3.67.18,1.09-.61,1a20.68,20.68,0,0,0-4.23.12C329.47,134.19,322.1,139.63,319.08,140.48Z"/><path class="cls-1" d="M365.07,141c-4.59-.24-6.41-4.35-4.9-9.25,1.27-4.05,4.9-8.52,7.5-11.42a14.1,14.1,0,0,1-7.25,2.3c-5,10.51-11.55,18.13-18.74,18.25-7.68.12-10.27-7.37-6.35-15.11,3.81-7.49,10-10.88,13-9.13a11.05,11.05,0,0,1,3.56,3.09c1,1.45.43,5-2,8.1-2.84,3.68-6.89,5.19-11.12,1.81-1.93,5.5-.42,9.43,2.66,9.55,6.65.3,13.3-9.25,16.62-16.93-4.65-1.93,1.27-10,3.81-10.09,1.87-.06,1.27,3.63-.24,7.56a16.23,16.23,0,0,0,6.58-2.84c.73-.49,1.27-.79,1.7-.19,1.2,1.33,2.72,4.24.9,6.23-2.84,3.14-5.92,7.25-6.95,10.52s-.3,5.74,1.51,5.8c2.54.12,5.62-3.87,7.56-8.34.24-.49.66-.61.9-.06a5.36,5.36,0,0,1-.3,3.93C372,138.42,368.39,141.2,365.07,141Zm-18.61-15.65c1.93-2.48,3.2-5.62,2.41-6.29-1.33-1.15-6.28,2.66-9.06,8.22-.19.3-.31.73-.49,1C342.29,130.14,344.64,127.66,346.46,125.37Z"/><path class="cls-1" d="M377.21,140.78c-5.56,0-6.76-7.68-1.75-14.93,4.84-6.95,9.61-9.73,12.69-9.73,2.36,0,3.57,1.87,3.57,4,.91-1.51,1.69-2.72,2.12-3.33s1-.9,1.45-.36c1,1.09,1.39,3.63.06,6.65-1.21,2.72-4.42,7.43-5.75,10.52-1.45,3.44-1.2,5.68.67,5.5,3.87-.36,9.31-7.8,12.15-16.68-4.9-1.76.84-10,3.26-10.16,1.88-.12,1.27,3.45,0,7.62a15.18,15.18,0,0,0,6.71-2.84c.85-.61,1.27-.73,1.81-.12,1.15,1.27,2.6,4,.85,6.1-2.84,3.26-5.92,7.49-6.89,10.52-1,3.32-.36,5.68,1.51,5.8,2.54.18,5.56-3.81,7.5-8.34.24-.49.66-.61.9,0a5.32,5.32,0,0,1-.24,3.93c-1.57,3.62-5.14,6.28-8.46,6.16-4.59-.18-6.41-4.35-5-9.18,1.21-4,4.9-8.47,7.5-11.37a14.78,14.78,0,0,1-7.13,2.24c-3,8.52-8.41,17.65-14.87,18.13-3.33.24-5.14-1.87-5.08-5C382.9,138.42,380.18,140.78,377.21,140.78Zm2.24-12.51c-3.26,5.2-3.93,10.46-1.57,10.51s5.56-3.62,8.64-9.06c3.75-6.59,4.29-10.4,2.54-10.52S382.78,123,379.45,128.27Z"/><path class="cls-1" d="M433.6,139.45c2.48-.12,5.74-4.17,7.86-8.34.3-.54.72-.54,1-.06a5.21,5.21,0,0,1-.48,3.75c-1.63,3.32-5.38,6.52-8.7,6.34s-4.9-2-4.9-4.83c-1.93,2.42-4.65,4.65-7.49,4.65-5.62,0-6.71-7.68-1.76-14.93,4.78-7,9.61-9.73,12.64-9.73,2.47,0,3.68,1.88,3.62,4.11,3.27-6.22,7.86-14.44,10-17.53.6-.84,1.14-.78,1.45,0,.84,2,.66,4.6-1.88,9.13-2.9,5.2-8.7,15.17-11.72,21.58C431.61,137.09,431.54,139.57,433.6,139.45Zm-10.52-11c-3.26,5.2-3.93,10.46-1.57,10.52s5.68-3.51,8.52-9c3.51-6.71,4.42-10.52,2.66-10.58S426.41,123.13,423.08,128.45Z"/><rect class="cls-1" y="129.48" width="185.66" height="1.72"/><rect class="cls-1" x="506.44" y="129.48" width="185.66" height="1.72"/></svg>